<svg xmlns="http://www.w3.org/2000/svg" viewBox="0 0 952 780.34"><defs><style>.cls-1{fill:#efefef;}</style></defs><g id="Ebene_2" data-name="Ebene 2"><g id="Ebene_1-2" data-name="Ebene 1"><path d="M452.5,780.34,187.76,88.6h-4.27Q191,170.8,191,284V780.34h-83.8V0H243.8L490.93,643.7h4.27L744.46,0H880V780.34H789.29V277.55q0-86.48,7.48-187.88H792.5L525.62,780.34Z"/><rect x="658.55" y="486.24" width="293.45" height="293.45"/><path class="cls-1" d="M863.81,721.54l-22.38-57.2H769.35l-22.14,57.2H726.05L797.15,541h17.59l70.72,180.57Zm-28.9-76L814,589.8q-4.07-10.57-8.37-25.95a230.63,230.63,0,0,1-7.75,25.95l-21.15,55.72Z"/><rect y="486.24" width="293.45" height="293.45"/><path class="cls-1" d="M84.26,704.64Q62,679.07,62,632.46q0-46.22,22.29-71.65t63.33-25.44q39.9,0,62.31,25.89t22.42,71.46q0,45.45-22.48,71.47t-62.5,26q-40.92,0-63.14-25.57m.57-71.92q0,38.46,16,58.33t46.55,19.87q30.76,0,46.48-19.81t15.7-58.39q0-38.19-15.64-57.93t-46.29-19.74q-30.78,0-46.8,19.87T84.83,632.72Z"/></g></g></svg>