<?xml version="1.0" encoding="UTF-8" standalone="no"?>
<!DOCTYPE svg PUBLIC "-//W3C//DTD SVG 1.1//EN" "http://www.w3.org/Graphics/SVG/1.1/DTD/svg11.dtd">
<svg width="100%" height="100%" viewBox="0 0 952 781" version="1.1" xmlns="http://www.w3.org/2000/svg" xmlns:xlink="http://www.w3.org/1999/xlink" xml:space="preserve" xmlns:serif="http://www.serif.com/" style="fill-rule:evenodd;clip-rule:evenodd;stroke-linejoin:round;stroke-miterlimit:2;">
    <g id="Ebene_2">
        <g id="Ebene_1-2">
            <path d="M452.5,780.34L187.76,88.6L183.49,88.6C188.497,143.4 191,208.533 191,284L191,780.34L107.2,780.34L107.2,0L243.8,0L490.93,643.7L495.2,643.7L744.46,0L880,0L880,780.34L789.29,780.34L789.29,277.55C789.29,219.897 791.783,157.27 796.77,89.67L792.5,89.67L525.62,780.34L452.5,780.34Z" style="fill:white;fill-rule:nonzero;"/>
            <rect x="658.55" y="486.24" width="293.45" height="293.45" style="fill:white;"/>
            <path d="M863.81,721.54L841.43,664.34L769.35,664.34L747.21,721.54L726.05,721.54L797.15,541L814.74,541L885.46,721.57L863.81,721.54ZM834.91,645.54L814,589.8C811.287,582.753 808.497,574.103 805.63,563.85C803.557,572.644 800.969,581.309 797.88,589.8L776.73,645.52L834.91,645.54Z" style="fill-rule:nonzero;"/>
            <rect x="0" y="486.24" width="293.45" height="293.45" style="fill:white;"/>
            <path d="M84.26,704.64C69.42,687.593 62,663.533 62,632.46C62,601.647 69.43,577.763 84.29,560.81C99.15,543.857 120.26,535.377 147.62,535.37C174.22,535.37 194.99,544 209.93,561.26C224.87,578.52 232.343,602.34 232.35,632.72C232.35,663.02 224.857,686.843 209.87,704.19C194.883,721.537 174.05,730.203 147.37,730.19C120.09,730.19 99.043,721.667 84.23,704.62M84.8,632.7C84.8,658.34 90.133,677.783 100.8,691.03C111.467,704.277 126.983,710.9 147.35,710.9C167.857,710.9 183.35,704.297 193.83,691.09C204.31,677.883 209.543,658.42 209.53,632.7C209.53,607.24 204.317,587.93 193.89,574.77C183.463,561.61 168.033,555.03 147.6,555.03C127.08,555.03 111.48,561.653 100.8,574.9C90.12,588.147 84.797,607.42 84.83,632.72L84.8,632.7Z" style="fill-rule:nonzero;"/>
        </g>
    </g>
</svg>
