<svg xmlns="http://www.w3.org/2000/svg" viewBox="0 0 1128.76 371.19"><g id="Ebene_2" data-name="Ebene 2"><g id="Ebene_1-2" data-name="Ebene 1"><path fill="#409eff" d="M1067,.18V47.44c-76.19-68.35-193.36-62-261.71,14.19a185.35,185.35,0,0,0,.07,247.6H718.58V.18H656.87L615.66,62l-20.6,30.93L574.45,123.8a12.38,12.38,0,0,1-20.35,0h0L533.5,92.92,513.15,62,471.94.18H409.63V309.23h-86C392,232.92,385.53,115.65,309.22,47.31S115.65-14.57,47.31,61.74a185.49,185.49,0,0,0,0,247.49H.05V371H123.67v-78.4a123.62,123.62,0,1,1,123.62,0V371H409.63a61.82,61.82,0,0,0,61.81-61.81h0V108.13L492,139.06l41.21,61.81,20.8,29.4a12.3,12.3,0,0,0,20.35,0l20.81-29.4,41.21-61.81L657,108.13v201.1a61.67,61.67,0,0,0,7.43,29.45c1,1.73,2,3.46,3.1,5.09a62.73,62.73,0,0,0,7.58,9.16,61,61,0,0,0,14.24,10.63,56.4,56.4,0,0,0,11,4.68,61.5,61.5,0,0,0,18.42,2.8h224.7a185.55,185.55,0,0,0,61.81-10.53,180.27,180.27,0,0,0,30.93-14.3V267.36a123.55,123.55,0,0,1-30.93,25.43,122,122,0,0,1-61.81,16.59h0A123.62,123.62,0,1,1,1050.37,124,122.1,122.1,0,0,1,1067,185.76V371.19h61.81V.33Z"/></g></g></svg>
